<?xml version="1.0" encoding="utf-8"?>
<!-- Generator: Adobe Illustrator 24.2.3, SVG Export Plug-In . SVG Version: 6.00 Build 0)  -->
<svg version="1.1" xmlns="http://www.w3.org/2000/svg" xmlns:xlink="http://www.w3.org/1999/xlink" x="0px" y="0px"
	 viewBox="0 0 496 207.1" style="enable-background:new 0 0 496 207.1;" xml:space="preserve">
<style type="text/css">
	.st0{fill:#4353FF;}
	.st1{fill:#FFFFFF;}
	.st2{opacity:0.6;}
	.st3{fill-rule:evenodd;clip-rule:evenodd;fill:#2E3134;}
	.st4{fill:#3C3C3B;}
</style>
<g id="Layer_1">
	<g>
		<g>
			<path class="st0" d="M159.7,103.6c0,36.1-29.6,65.7-65.7,65.7s-65.7-29.5-65.7-65.7S57.8,37.9,94,37.9S159.7,67.5,159.7,103.6z"
				/>
		</g>
		<path class="st1" d="M114,95.2c0,0-5.7,17.8-6.1,19.3c-0.2-1.5-4.3-33.5-4.3-33.5c-9.7,0-14.9,6.9-17.6,14.2
			c0,0-6.9,17.9-7.5,19.4c0-1.4-1.1-19.2-1.1-19.2c-0.6-8.9-8.7-14.4-15.3-14.4l8,48.5c10.2,0,15.6-6.9,18.5-14.2
			c0,0,6.1-15.8,6.3-16.5c0.1,0.7,4.4,30.7,4.4,30.7c10.2,0,15.6-6.4,18.6-13.5l14.2-35.1C122.1,81,116.8,87.9,114,95.2z"/>
	</g>
	<g>
		<g>
			<g transform="translate(0 36)" class="st2">
				<path class="st3" d="M358.3,101.4h33.9c2.9,0,5.3,2.4,5.3,5.3v11.9c0,2.9-2.4,5.3-5.3,5.3h-33.9c-2.9,0-5.3-2.4-5.3-5.3v-11.9
					C353,103.7,355.4,101.4,358.3,101.4z"/>
				<path class="st3" d="M425.2,101.4h33.9c2.9,0,5.3,2.4,5.3,5.3v11.9c0,2.9-2.4,5.3-5.3,5.3h-33.9c-2.9,0-5.3-2.4-5.3-5.3v-11.9
					C419.9,103.7,422.2,101.4,425.2,101.4z"/>
				<path class="st3" d="M358.2,56.3h100.9c2.9,0,5.3,2.4,5.3,5.3v11.9c0,2.9-2.4,5.3-5.3,5.3H358.2c-2.9,0-5.3-2.4-5.3-5.3V61.6
					C352.9,58.7,355.3,56.3,358.2,56.3z"/>
				<path class="st3" d="M358.3,11.2h56.3c2.9,0,5.3,2.4,5.3,5.3v11.9c0,2.9-2.4,5.3-5.3,5.3h-56.3c-2.9,0-5.3-2.4-5.3-5.3V16.5
					C353,13.6,355.4,11.2,358.3,11.2z"/>
				<path class="st3" d="M447.4,11.2h11.7c2.9,0,5.3,2.4,5.3,5.3v11.9c0,2.9-2.4,5.3-5.3,5.3h-11.7c-2.9,0-5.3-2.4-5.3-5.3V16.5
					C442.1,13.6,444.5,11.2,447.4,11.2z"/>
			</g>
		</g>
	</g>
</g>
<g id="Livello_1">
	<path class="st4" d="M248,65.4l-6.7,6.7l26.6,26.6h-58v9.5h58l-26.6,26.6l6.7,6.7l38.1-38.1L248,65.4z"/>
</g>
</svg>
