<svg width="149" height="62" viewBox="0 0 149 62" fill="none" xmlns="http://www.w3.org/2000/svg">
<path d="M46.7728 31.0148C46.7728 41.8222 37.8808 50.6836 27.0363 50.6836C16.1917 50.6836 7.29979 41.8521 7.29979 31.0148C7.29979 20.1776 16.1617 11.3461 27.0363 11.3461C37.9109 11.3461 46.7728 20.2075 46.7728 31.0148Z" fill="#4353FF"/>
<path d="M33.0443 28.4704C33.0443 28.4704 31.332 33.7992 31.2119 34.2482C31.1518 33.7992 29.9202 24.2193 29.9202 24.2193C27.0062 24.2193 25.4441 26.2849 24.6331 28.4704C24.6331 28.4704 22.5603 33.8291 22.38 34.2782C22.38 33.8591 22.0496 28.5302 22.0496 28.5302C21.8693 25.8658 19.4361 24.2193 17.4534 24.2193L19.8566 38.7388C22.9208 38.7388 24.5429 36.6732 25.4141 34.4877C25.4141 34.4877 27.2466 29.7577 27.3066 29.5481C27.3367 29.7577 28.6284 38.7388 28.6284 38.7388C31.6925 38.7388 33.3147 36.8228 34.2159 34.6973L38.4816 24.1893C35.4776 24.2193 33.8855 26.2849 33.0443 28.4704Z" fill="white"/>
<path d="M122.144 16.3757C126.8 16.3757 131.456 16.3757 136.083 16.3757C136.083 21.1058 136.083 25.8359 136.083 30.566C131.426 30.566 126.77 30.566 122.144 30.566C122.144 25.8359 122.144 21.1058 122.144 16.3757ZM107.394 31.3743C112.05 31.4042 116.677 31.3743 121.333 31.4042C121.333 36.1343 121.333 40.8644 121.333 45.5645C118.119 45.5047 114.934 44.2473 112.501 42.1517C109.767 39.8465 107.965 36.4636 107.484 32.931C107.394 32.4221 107.334 31.9132 107.394 31.3743ZM122.144 31.4342C126.8 31.4342 131.426 31.4342 136.083 31.4342C136.023 34.6075 134.881 37.721 132.898 40.2058C130.826 42.8103 127.822 44.6964 124.547 45.355C123.766 45.5346 122.955 45.5945 122.144 45.6244C122.114 40.8943 122.144 36.1642 122.144 31.4342Z" fill="white"/>
<path d="M117.277 11.8851C118.599 11.5858 119.921 11.4062 121.273 11.3463C126.139 11.3463 131.006 11.3463 135.842 11.3463C137.585 11.3762 139.327 11.2864 141.069 11.3762C141.069 17.9325 141.069 24.4588 141.069 31.015C141.069 34.6973 140.048 38.3796 138.065 41.523C135.842 45.1155 132.418 47.9595 128.422 49.4564C126.47 50.2048 124.367 50.594 122.264 50.6838C120.101 50.7137 117.938 50.4144 115.866 49.7557C112.05 48.5283 108.656 46.0735 106.283 42.8702C104.57 40.6249 103.399 37.9904 102.828 35.2362C101.927 31.1048 102.377 26.7041 104.12 22.8422C106.523 17.4235 111.51 13.2323 117.277 11.8851ZM122.144 16.3757C122.144 21.1058 122.144 25.8359 122.144 30.566C126.8 30.566 131.456 30.566 136.083 30.566C136.083 25.8359 136.083 21.1058 136.083 16.3757C131.426 16.3757 126.8 16.3757 122.144 16.3757ZM107.394 31.3743C107.364 31.8832 107.424 32.4221 107.484 32.931C107.965 36.4636 109.767 39.8465 112.501 42.1517C114.934 44.2473 118.119 45.5047 121.333 45.5645C121.333 40.8344 121.333 36.1044 121.333 31.4042C116.677 31.3743 112.02 31.4042 107.394 31.3743ZM122.144 31.4342C122.144 36.1642 122.144 40.8943 122.144 45.6244C122.955 45.5645 123.766 45.5047 124.547 45.355C127.822 44.6963 130.826 42.8103 132.898 40.2058C134.881 37.721 136.023 34.6075 136.083 31.4342C131.426 31.4342 126.8 31.4342 122.144 31.4342Z" fill="#EE1780"/>
<path d="M74.5 19.579L72.4873 21.5848L80.478 29.5481H63.0546V32.3921H80.478L72.4873 40.3554L74.5 42.3612L85.9454 30.9551L74.5 19.579Z" fill="#3C3C3B"/>
</svg>
