<svg width="149" height="63" viewBox="0 0 149 63" fill="none" xmlns="http://www.w3.org/2000/svg">
<path d="M47.9744 31.5152C47.9744 42.4968 39.0824 51.5012 28.2379 51.5012C17.3933 51.5012 8.5014 42.5272 8.5014 31.5152C8.5014 20.5031 17.3633 11.5292 28.2379 11.5292C39.1125 11.5292 47.9744 20.5335 47.9744 31.5152Z" fill="#4353FF"/>
<path d="M34.246 28.9599C34.246 28.9599 32.5337 34.3747 32.4135 34.831C32.3534 34.3747 31.1218 24.6403 31.1218 24.6403C28.2079 24.6403 26.6458 26.7393 25.8347 28.9599C25.8347 28.9599 23.7619 34.4051 23.5816 34.8614C23.5816 34.4355 23.2512 29.0208 23.2512 29.0208C23.071 26.3134 20.6377 24.6403 18.655 24.6403L21.0583 39.394C24.1224 39.394 25.7445 37.295 26.6157 35.0744C26.6157 35.0744 28.4482 30.268 28.5083 30.0551C28.5383 30.268 29.83 39.394 29.83 39.394C32.8941 39.394 34.5163 37.4471 35.4175 35.2873L39.6833 24.6099C36.6792 24.6403 35.0871 26.7393 34.246 28.9599Z" fill="white"/>
<path d="M120.942 13.9932C123.285 13.9932 125.539 14.4495 127.671 15.3621C128.693 15.788 129.684 16.366 130.615 16.9744C131.547 17.6132 132.418 18.3129 133.169 19.1038C133.95 19.8947 134.641 20.7769 135.272 21.6895C135.902 22.6325 136.443 23.6364 136.864 24.6707C137.765 26.8305 138.216 29.112 138.216 31.4848C138.216 33.8575 137.765 36.139 136.864 38.2989C136.443 39.3332 135.872 40.337 135.272 41.28C134.641 42.2231 133.95 43.1052 133.169 43.8657C132.388 44.6567 131.517 45.3563 130.615 45.9952C129.684 46.634 128.693 47.1815 127.671 47.6074C125.539 48.52 123.285 48.9763 120.942 48.9763C118.599 48.9763 116.346 48.52 114.213 47.6074C113.192 47.1815 112.201 46.6036 111.269 45.9952C110.338 45.3563 109.467 44.6567 108.716 43.8657C107.935 43.0748 107.244 42.1926 106.613 41.28C105.982 40.337 105.442 39.3332 105.021 38.2989C104.12 36.139 103.669 33.8575 103.669 31.4848C103.669 29.112 104.12 26.8305 105.021 24.6707C105.442 23.6364 106.012 22.6325 106.613 21.6895C107.244 20.7465 107.935 19.8643 108.716 19.1038C109.497 18.3129 110.368 17.6132 111.269 16.9744C112.201 16.3356 113.192 15.788 114.213 15.3621C116.346 14.4495 118.599 13.9932 120.942 13.9932ZM120.942 12.8677C110.789 12.8677 102.528 21.2332 102.528 31.5152C102.528 41.7972 110.789 50.1627 120.942 50.1627C131.096 50.1627 139.357 41.7972 139.357 31.5152C139.357 21.2332 131.126 12.8677 120.942 12.8677Z" fill="#23282D"/>
<path d="M105.592 31.5457C105.592 37.6905 109.106 43.0445 114.243 45.5389L106.914 25.1879C106.072 27.1348 105.592 29.2642 105.592 31.5457ZM131.306 30.7243C131.306 28.8079 130.615 27.4694 130.045 26.4351C129.264 25.1575 128.543 24.0928 128.543 22.7847C128.543 21.355 129.624 20.0165 131.096 20.0165C131.156 20.0165 131.246 20.0469 131.306 20.0469C128.573 17.522 124.938 15.9402 120.912 15.9402C115.565 15.9402 110.849 18.7388 108.085 22.9368C108.446 22.9672 108.806 22.9672 109.076 22.9672C110.669 22.9672 113.192 22.7543 113.192 22.7543C114.033 22.6934 114.123 23.9407 113.282 24.0319C113.282 24.0319 112.441 24.1232 111.51 24.184L117.097 41.0063L120.462 30.8156L118.089 24.184C117.247 24.1232 116.496 24.0319 116.496 24.0319C115.655 23.9711 115.745 22.6934 116.586 22.7543C116.586 22.7543 119.11 22.9672 120.642 22.9672C122.234 22.9672 124.757 22.7543 124.757 22.7543C125.599 22.6934 125.689 23.9407 124.848 24.0319C124.848 24.0319 124.006 24.1232 123.075 24.184L128.603 40.8846L130.165 35.8045C130.886 33.6447 131.306 32.0628 131.306 30.7243ZM121.213 32.8842L116.617 46.4211C117.998 46.8166 119.44 47.0599 120.942 47.0599C122.745 47.0599 124.457 46.7557 126.049 46.1777C125.989 46.1169 125.959 46.0256 125.929 45.9648L121.213 32.8842ZM134.43 24.0623C134.491 24.5491 134.551 25.0966 134.551 25.6442C134.551 27.1956 134.25 28.9904 133.379 31.2111L128.693 44.9609C133.259 42.284 136.323 37.2647 136.323 31.5153C136.293 28.8079 135.632 26.283 134.43 24.0623Z" fill="#23282D"/>
<path d="M74.5 19.8948L72.4873 21.9329L80.478 30.0247H63.0546V32.9146H80.478L72.4873 41.0063L74.5 43.0445L85.9454 31.4544L74.5 19.8948Z" fill="#3C3C3B"/>
</svg>
