<svg width="149" height="66" viewBox="0 0 149 66" fill="none" xmlns="http://www.w3.org/2000/svg">
<path d="M47.9744 34.4182C47.9744 45.9228 39.0824 55.3559 28.2379 55.3559C17.3933 55.3559 8.5014 45.9546 8.5014 34.4182C8.5014 22.8817 17.3633 13.4805 28.2379 13.4805C39.1125 13.4805 47.9744 22.9136 47.9744 34.4182Z" fill="#4353FF"/>
<path d="M34.246 31.7412C34.246 31.7412 32.5337 37.4138 32.4135 37.8918C32.3534 37.4138 31.1218 27.2158 31.1218 27.2158C28.2079 27.2158 26.6458 29.4148 25.8347 31.7412C25.8347 31.7412 23.7619 37.4457 23.5816 37.9237C23.5816 37.4775 23.2512 31.8049 23.2512 31.8049C23.071 28.9686 20.6377 27.2158 18.655 27.2158L21.0583 42.6721C24.1224 42.6721 25.7445 40.4732 26.6157 38.1468C26.6157 38.1468 28.4482 33.1115 28.5083 32.8884C28.5383 33.1115 29.83 42.6721 29.83 42.6721C32.8941 42.6721 34.5163 40.6325 35.4175 38.3699L39.6833 27.184C36.6792 27.2158 35.0871 29.4148 34.246 31.7412Z" fill="white"/>
<path d="M112.367 56.5635L126.095 53.4085C126.095 53.4085 121.139 17.8431 121.109 17.62C121.079 17.3969 120.898 17.2376 120.718 17.2376C120.538 17.2376 117.053 16.9507 117.053 16.9507C117.053 16.9507 114.62 14.3694 114.35 14.1144C114.29 14.0507 114.199 13.9869 114.139 13.9551L112.367 56.5635Z" fill="#678C45"/>
<path d="M113.509 13.8594C113.478 13.8594 113.388 13.8913 113.358 13.8913C113.328 13.8913 112.818 14.0506 112.007 14.3056C111.195 11.8198 109.753 9.52527 107.23 9.52527C107.17 9.52527 107.08 9.52527 107.02 9.52527C106.299 8.53734 105.398 8.12305 104.647 8.12305C98.7287 8.12305 95.9049 15.9627 95.0337 19.9145C92.7507 20.6474 91.0984 21.1892 90.9182 21.2848C89.6265 21.6991 89.5964 21.7628 89.4462 23.0376C89.296 23.9618 85.9615 51.4326 85.9615 51.4326L111.766 56.5634L113.509 13.8594ZM106.779 15.7715C106.779 15.8353 106.779 15.9627 106.779 16.0583C105.338 16.5364 103.775 17.0463 102.213 17.5243C103.085 13.955 104.737 12.2022 106.179 11.533C106.569 12.5209 106.779 13.8913 106.779 15.7715ZM104.436 9.81209C104.707 9.81209 104.947 9.87582 105.217 10.0989C103.355 11.0231 101.282 13.4132 100.441 18.1617C99.1793 18.576 97.9777 18.9903 96.8361 19.3408C97.8275 15.6759 100.231 9.81209 104.436 9.81209ZM105.458 30.9729C105.458 30.9729 103.926 30.1124 102.093 30.1124C99.3295 30.1124 99.2394 31.9289 99.2394 32.407C99.2394 34.8927 105.398 35.8807 105.398 41.7445C105.398 46.3654 102.634 49.3292 98.9089 49.3292C94.4329 49.3292 92.1499 46.3654 92.1499 46.3654L93.3515 42.1588C93.3515 42.1588 95.6946 44.294 97.6773 44.294C98.969 44.294 99.5097 43.2104 99.5097 42.4137C99.5097 39.1313 94.4329 38.9719 94.4329 33.618C94.4329 29.0926 97.467 24.6948 103.685 24.6948C106.059 24.6948 107.26 25.4277 107.26 25.4277L105.458 30.9729ZM107.831 11.2462C109.153 11.4055 109.994 12.999 110.535 14.7836C109.874 15.0067 109.153 15.2616 108.342 15.5166C108.342 15.3572 108.342 15.1979 108.342 15.0067C108.342 13.5089 108.161 12.266 107.831 11.2462Z" fill="#9DBD53"/>
<path d="M66.859 27.4154L65.5123 28.8471L70.8419 34.5231H59.218V36.5539H70.8419L65.5123 42.2299L66.859 43.6616L74.5 35.5385L66.859 27.4154Z" fill="#4D4D4D"/>
</svg>
