<svg width="149" height="63" viewBox="0 0 149 63" fill="none" xmlns="http://www.w3.org/2000/svg">
<path d="M47.9744 31.5152C47.9744 42.4968 39.0825 51.5012 28.2379 51.5012C17.3933 51.5012 8.5014 42.5272 8.5014 31.5152C8.5014 20.5031 17.3633 11.5292 28.2379 11.5292C39.1125 11.5292 47.9744 20.5335 47.9744 31.5152Z" fill="#4353FF"/>
<path d="M34.246 28.9599C34.246 28.9599 32.5337 34.3747 32.4135 34.831C32.3534 34.3747 31.1218 24.6403 31.1218 24.6403C28.2079 24.6403 26.6458 26.7393 25.8347 28.9599C25.8347 28.9599 23.7619 34.4051 23.5816 34.8614C23.5816 34.4355 23.2512 29.0208 23.2512 29.0208C23.071 26.3134 20.6377 24.6403 18.655 24.6403L21.0583 39.394C24.1224 39.394 25.7445 37.295 26.6157 35.0744C26.6157 35.0744 28.4482 30.268 28.5083 30.0551C28.5383 30.268 29.83 39.394 29.83 39.394C32.8941 39.394 34.5163 37.4471 35.4175 35.2873L39.6833 24.6099C36.6792 24.6403 35.0871 26.7393 34.246 28.9599Z" fill="white"/>
<g opacity="0.6">
<path opacity="0.6" fill-rule="evenodd" clip-rule="evenodd" d="M107.635 41.7972H117.818C118.689 41.7972 119.41 42.5273 119.41 43.4095V47.0295C119.41 47.9117 118.689 48.6418 117.818 48.6418H107.635C106.763 48.6418 106.042 47.9117 106.042 47.0295V43.4095C106.042 42.4969 106.763 41.7972 107.635 41.7972Z" fill="#2E3134"/>
<path opacity="0.6" fill-rule="evenodd" clip-rule="evenodd" d="M127.731 41.7972H137.915C138.786 41.7972 139.507 42.5273 139.507 43.4095V47.0295C139.507 47.9117 138.786 48.6418 137.915 48.6418H127.731C126.86 48.6418 126.139 47.9117 126.139 47.0295V43.4095C126.139 42.4969 126.83 41.7972 127.731 41.7972Z" fill="#2E3134"/>
<path opacity="0.6" fill-rule="evenodd" clip-rule="evenodd" d="M107.604 28.0778H137.915C138.786 28.0778 139.507 28.8078 139.507 29.69V33.31C139.507 34.1922 138.786 34.9223 137.915 34.9223H107.604C106.733 34.9223 106.012 34.1922 106.012 33.31V29.69C106.012 28.8078 106.733 28.0778 107.604 28.0778Z" fill="#2E3134"/>
<path opacity="0.6" fill-rule="evenodd" clip-rule="evenodd" d="M107.635 14.3583H124.548C125.419 14.3583 126.14 15.0884 126.14 15.9705V19.5905C126.14 20.4727 125.419 21.2028 124.548 21.2028H107.635C106.764 21.2028 106.043 20.4727 106.043 19.5905V15.9705C106.043 15.0884 106.764 14.3583 107.635 14.3583Z" fill="#2E3134"/>
<path opacity="0.6" fill-rule="evenodd" clip-rule="evenodd" d="M134.4 14.3583H137.915C138.786 14.3583 139.507 15.0884 139.507 15.9705V19.5905C139.507 20.4727 138.786 21.2028 137.915 21.2028H134.4C133.529 21.2028 132.808 20.4727 132.808 19.5905V15.9705C132.808 15.0884 133.529 14.3583 134.4 14.3583Z" fill="#2E3134"/>
</g>
<path d="M74.5 19.8948L72.4873 21.9329L80.478 30.0247H63.0546V32.9146H80.478L72.4873 41.0063L74.5 43.0445L85.9454 31.4544L74.5 19.8948Z" fill="#3C3C3B"/>
</svg>
